<svg width="181" height="21" viewBox="0 0 181 21" fill="none" xmlns="http://www.w3.org/2000/svg">
<g clip-path="url(#clip0_1684_1015)">
<path d="M2.18372 18.672L-0.000348379 16.449L14.8225 1.36237C15.247 0.930325 15.7509 0.587611 16.3055 0.353792C16.8601 0.119971 17.4546 -0.000373883 18.0549 -0.000373883C18.6552 -0.000373883 19.2497 0.11997 19.8043 0.353791C20.3589 0.587611 20.8628 0.930326 21.2873 1.36237L23.4714 3.58531L8.64856 18.672C7.79127 19.5445 6.62853 20.0347 5.41614 20.0347C4.20375 20.0347 3.04101 19.5445 2.18372 18.672Z" fill="white"/>
<path d="M19.0281 18.6729L16.8441 16.45L31.6669 1.36335C32.0914 0.931302 32.5953 0.588588 33.1499 0.354769C33.7046 0.120948 34.299 0.00060268 34.8993 0.00060268C35.4996 0.00060268 36.0941 0.120947 36.6487 0.354768C37.2033 0.588587 37.7073 0.931303 38.1317 1.36335L40.3158 3.58629L25.493 18.6729C24.6357 19.5455 23.473 20.0357 22.2606 20.0357C21.0482 20.0357 19.8854 19.5455 19.0281 18.6729Z" fill="white"/>
<path d="M35.5773 16.4898C35.5773 19.0017 37.5781 21.0381 40.0461 21.0381C42.5141 21.0381 44.5149 19.0017 44.5149 16.4898C44.5149 13.9778 42.5141 11.9414 40.0461 11.9414C37.5781 11.9414 35.5773 13.9778 35.5773 16.4898Z" fill="white"/>
<path d="M111.901 17.4979H107.785L102.799 11.1702V11.1614V17.4979H99.2584V3.59892C99.2584 2.64465 99.6308 1.72944 100.294 1.05454C100.957 0.379652 101.856 0.00033343 102.793 0V0V9.68263L107.514 3.54611H111.736L106.225 10.4371L111.901 17.4979Z" fill="white"/>
<path d="M180.099 11.0189C179.67 10.4411 179.089 9.99757 178.424 9.7388C177.778 9.48876 177.118 9.27879 176.447 9.11006C175.871 8.97211 175.31 8.77711 174.772 8.52784C174.313 8.3103 174.086 8.02485 174.086 7.67024C174.083 7.51125 174.12 7.35412 174.195 7.21463C174.27 7.07513 174.38 6.95818 174.514 6.87551C174.837 6.67217 175.212 6.57148 175.592 6.58629C176.562 6.58209 177.252 7.02724 177.664 7.92174L180.524 6.33479C180.044 5.46175 179.333 4.74302 178.472 4.25994C177.588 3.77215 176.596 3.52279 175.591 3.53563C174.185 3.53563 173.015 3.91287 172.072 4.65982C171.13 5.40677 170.654 6.43287 170.654 7.7394C170.654 8.60078 170.885 9.32132 171.343 9.8897C171.785 10.4501 172.363 10.8835 173.02 11.1472C173.666 11.4064 174.326 11.6272 174.997 11.8086C175.57 11.9544 176.13 12.1522 176.668 12.3996C177.132 12.6222 177.358 12.9114 177.358 13.2623C177.358 14.0168 176.76 14.394 175.569 14.394C174.251 14.394 173.403 13.821 173.024 12.675L170.115 14.3412C171.085 16.437 172.903 17.4849 175.569 17.4849C177.051 17.4849 178.297 17.1152 179.293 16.3871C180.288 15.659 180.785 14.6103 180.785 13.2547C180.785 12.3653 180.556 11.62 180.099 11.0189Z" fill="white"/>
<path d="M96.9617 3.54702V7.14091C96.1573 7.19378 95.3989 7.54131 94.8268 8.11922C94.2547 8.69713 93.9075 9.46635 93.8494 10.2846C93.8494 10.3601 93.8408 10.4355 93.8408 10.516C93.8394 10.5928 93.8422 10.6696 93.8494 10.7461V17.4913H90.3147V3.54199H93.8507V4.4084C94.8053 3.87266 95.872 3.5773 96.9617 3.54702Z" fill="white"/>
<path d="M159.826 9.37047C159.57 7.81034 158.801 6.38491 157.645 5.32778C156.49 4.27064 155.015 3.64451 153.464 3.55199C151.912 3.45948 150.376 3.90606 149.107 4.81855C147.837 5.73105 146.91 7.05533 146.477 8.57438C146.044 10.0934 146.131 11.7171 146.723 13.1794C147.316 14.6417 148.378 15.8558 149.738 16.6227C151.097 17.3897 152.671 17.664 154.204 17.4008C155.736 17.1375 157.135 16.3523 158.172 15.1738L155.549 12.7694C155.166 13.2091 154.678 13.5396 154.132 13.7284C153.585 13.9171 153 13.9577 152.434 13.8459C151.867 13.7342 151.34 13.4741 150.902 13.0912C150.465 12.7084 150.133 12.2161 149.94 11.6629H159.824C159.863 11.4278 159.89 11.1906 159.903 10.9524C159.911 10.8141 159.915 10.6632 159.915 10.5173C159.916 10.1332 159.887 9.7496 159.826 9.37047ZM149.942 9.37047C150.173 8.71457 150.597 8.14722 151.156 7.74609C151.716 7.34496 152.383 7.12966 153.068 7.12966C153.752 7.12966 154.42 7.34496 154.98 7.74609C155.539 8.14722 155.963 8.71457 156.194 9.37047H149.942Z" fill="white"/>
<path d="M137.056 3.44399C135.896 3.44153 134.756 3.74155 133.742 4.31543V3.54207H130.201V21.04H133.742V16.5256C134.756 17.0991 135.896 17.3987 137.056 17.3958C137.964 17.4082 138.865 17.2369 139.707 16.8919C140.549 16.5469 141.316 16.035 141.962 15.386C142.608 14.737 143.122 13.9638 143.472 13.1113C143.822 12.2588 144.002 11.3439 144.002 10.4199C144.002 9.49583 143.822 8.58099 143.472 7.72847C143.122 6.87594 142.608 6.10274 141.962 5.45373C141.316 4.80473 140.549 4.29287 139.707 3.94786C138.865 3.60285 137.964 3.43158 137.056 3.44399ZM137.056 13.8057C136.223 13.805 135.421 13.4867 134.808 12.9136C134.194 12.3405 133.814 11.5541 133.742 10.7097C133.734 10.6154 133.729 10.5186 133.729 10.4205C133.729 10.3224 133.729 10.2243 133.742 10.1313C133.797 9.47573 134.038 8.85057 134.436 8.33215C134.834 7.81373 135.372 7.42449 135.984 7.21196C136.595 6.99943 137.255 6.9728 137.881 7.13534C138.507 7.29788 139.074 7.64255 139.511 8.12725C139.948 8.61195 140.237 9.21571 140.343 9.8648C140.448 10.5139 140.366 11.1802 140.105 11.7824C139.845 12.3846 139.418 12.8966 138.876 13.2559C138.335 13.6152 137.702 13.8062 137.056 13.8057Z" fill="white"/>
<path d="M84.4634 3.54199V4.41343C83.4197 3.82779 82.2441 3.52921 81.0525 3.54716C79.8608 3.5651 78.6944 3.89896 77.6683 4.51577C76.6421 5.13259 75.7917 6.01106 75.2009 7.0645C74.6101 8.11794 74.2994 9.30995 74.2994 10.5229C74.2994 11.7359 74.6101 12.9279 75.2009 13.9813C75.7917 15.0348 76.6421 15.9132 77.6683 16.5301C78.6944 17.1469 79.8608 17.4807 81.0525 17.4987C82.2441 17.5166 83.4197 17.2181 84.4634 16.6324V17.4938H87.9994V3.54199H84.4634ZM81.1461 13.9087C80.4976 13.9091 79.8632 13.7167 79.3207 13.355C78.7783 12.9933 78.3515 12.4782 78.0929 11.873C77.8343 11.2678 77.755 10.5988 77.8649 9.94833C77.9748 9.29788 78.2691 8.69429 78.7115 8.21178C79.154 7.72926 79.7253 7.38885 80.3553 7.2324C80.9853 7.07595 81.6464 7.11028 82.2575 7.33116C82.8686 7.55205 83.4029 7.94986 83.7948 8.47569C84.1867 9.00152 84.4191 9.63245 84.4634 10.2909C84.4634 10.3676 84.472 10.4431 84.472 10.5223C84.4735 10.5995 84.4706 10.6768 84.4634 10.7537C84.4058 11.6094 84.0313 12.411 83.4156 12.9966C82.7999 13.5822 81.9888 13.9082 81.1461 13.9087Z" fill="white"/>
<path d="M127.905 3.54199V17.5001H124.369V16.6337C123.324 17.221 122.148 17.5209 120.955 17.5039C119.762 17.4868 118.594 17.1534 117.567 16.5366C116.539 15.9197 115.688 15.0407 115.096 13.9864C114.504 12.9321 114.193 11.739 114.193 10.5248V3.54199H117.733V10.2871C117.733 10.3626 117.724 10.438 117.724 10.5185C117.724 10.599 117.724 10.6732 117.733 10.7486C117.787 11.6069 118.16 12.4121 118.776 13.0004C119.392 13.5888 120.206 13.9163 121.051 13.9163C121.896 13.9163 122.709 13.5888 123.325 13.0004C123.942 12.4121 124.315 11.6069 124.369 10.7486C124.376 10.6722 124.379 10.5953 124.377 10.5185C124.377 10.438 124.377 10.3626 124.369 10.2871V3.54199H127.905Z" fill="white"/>
<path d="M117.733 10.2871V10.7486C117.733 10.6732 117.724 10.5977 117.724 10.5185C117.724 10.4393 117.729 10.3626 117.733 10.2871Z" fill="white"/>
<path d="M168.867 3.54702V7.14091C168.062 7.19114 167.302 7.53777 166.729 8.11619C166.156 8.6946 165.81 9.46531 165.754 10.2846C165.754 10.3601 165.742 10.4355 165.742 10.516C165.74 10.5929 165.744 10.6699 165.754 10.7461V17.4913H162.22V3.54199H165.76V4.4084C166.713 3.87233 167.779 3.57693 168.867 3.54702Z" fill="white"/>
<path d="M71.996 9.2706V17.5122H68.4551V9.48312C68.4551 9.41647 68.4674 9.34605 68.4674 9.2706C68.4674 9.19515 68.4588 9.12851 68.4551 9.05683C68.4036 8.52575 68.1566 8.03415 67.7637 7.68083C67.3707 7.32751 66.861 7.13864 66.3368 7.15218C65.8126 7.16572 65.3129 7.38065 64.9381 7.7538C64.5633 8.12695 64.3411 8.63066 64.3162 9.16372C64.3143 9.16786 64.3133 9.17236 64.3133 9.17692C64.3133 9.18148 64.3143 9.18599 64.3162 9.19012C64.3143 9.21692 64.3143 9.24381 64.3162 9.2706C64.3143 9.29698 64.3143 9.32345 64.3162 9.34983C64.3162 9.36366 64.3162 9.37246 64.3162 9.37749V17.5122H60.7863V9.48312C60.789 9.43873 60.789 9.39422 60.7863 9.34983C60.7882 9.32345 60.7882 9.29698 60.7863 9.2706C60.7882 9.24381 60.7882 9.21692 60.7863 9.19012C60.789 9.1449 60.789 9.09955 60.7863 9.05432C60.7332 8.53335 60.4923 8.0509 60.1101 7.70018C59.7279 7.34946 59.2315 7.15535 58.7169 7.15535C58.2023 7.15535 57.7059 7.34946 57.3237 7.70018C56.9415 8.0509 56.7006 8.53335 56.6474 9.05432C56.6474 9.12599 56.6351 9.19264 56.6351 9.26809C56.6351 9.34354 56.6437 9.41396 56.6474 9.4806V17.4971H53.1016V9.2706C53.1026 8.12789 53.4406 7.01178 54.0716 6.06664C54.7026 5.1215 55.5978 4.3908 56.6413 3.96905C57.9702 3.43089 59.4512 3.43089 60.7802 3.96905C60.9457 4.03569 61.1076 4.11114 61.2645 4.19162C61.577 4.35443 61.8739 4.54639 62.1516 4.76504C62.2862 4.87569 62.4221 4.99138 62.5482 5.11084C62.6717 4.9851 62.8101 4.87569 62.946 4.76504C63.2232 4.54639 63.5198 4.35443 63.8318 4.19162C63.9887 4.11114 64.1506 4.03569 64.3162 3.96905C65.6451 3.43089 67.1261 3.43089 68.4551 3.96905C69.4988 4.39061 70.3942 5.12122 71.0254 6.06638C71.6567 7.01153 71.9948 8.12774 71.996 9.2706Z" fill="white"/>
</g>
<defs>
<clipPath id="clip0_1684_1015">
<rect width="181" height="21" fill="white"/>
</clipPath>
</defs>
</svg>
