<svg width="71" height="70" viewBox="0 0 71 70" fill="none" xmlns="http://www.w3.org/2000/svg">
<path d="M61.5954 24.2229C61.566 22.0139 61.1525 19.8268 60.3733 17.7596C59.6977 16.0159 58.6657 14.4322 57.3434 13.1099C56.0211 11.7876 54.4375 10.7556 52.6938 10.08C50.6531 9.31396 48.4972 8.89974 46.3179 8.855C43.5121 8.72958 42.6225 8.69458 35.5 8.69458C28.3775 8.69458 27.4646 8.69458 24.6792 8.855C22.5009 8.90007 20.346 9.31428 18.3062 10.08C16.5623 10.7552 14.9784 11.787 13.656 13.1093C12.3336 14.4317 11.3018 16.0156 10.6267 17.7596C9.85909 19.7987 9.44577 21.9541 9.40458 24.1325C9.27917 26.9412 9.24125 27.8308 9.24125 34.9533C9.24125 42.0758 9.24125 42.9858 9.40458 45.7742C9.44833 47.9558 9.85958 50.1083 10.6267 52.1529C11.303 53.8964 12.3355 55.4796 13.6584 56.8014C14.9812 58.1232 16.5652 59.1546 18.3092 59.8296C20.3433 60.6264 22.4986 61.0703 24.6821 61.1421C27.4908 61.2675 28.3804 61.3054 35.5029 61.3054C42.6254 61.3054 43.5383 61.3054 46.3238 61.1421C48.5029 61.0992 50.659 60.6859 52.6996 59.92C54.4429 59.2436 56.0261 58.2113 57.3483 56.8891C58.6705 55.5669 59.7027 53.9837 60.3792 52.2404C61.1463 50.1987 61.5575 48.0462 61.6012 45.8617C61.7267 43.0558 61.7646 42.1662 61.7646 35.0408C61.7587 27.9183 61.7588 27.0142 61.5954 24.2229ZM35.4825 48.4225C28.0333 48.4225 21.9987 42.3879 21.9987 34.9387C21.9987 27.4896 28.0333 21.455 35.4825 21.455C39.0586 21.455 42.4883 22.8756 45.017 25.4043C47.5456 27.933 48.9663 31.3626 48.9663 34.9387C48.9663 38.5149 47.5456 41.9445 45.017 44.4732C42.4883 47.0019 39.0586 48.4225 35.4825 48.4225ZM49.5029 24.1004C49.0899 24.1008 48.6809 24.0197 48.2992 23.8619C47.9176 23.704 47.5708 23.4724 47.2788 23.1804C46.9868 22.8883 46.7552 22.5416 46.5973 22.1599C46.4394 21.7783 46.3584 21.3693 46.3587 20.9562C46.3587 20.5435 46.44 20.1349 46.598 19.7536C46.7559 19.3723 46.9874 19.0258 47.2792 18.734C47.5711 18.4422 47.9175 18.2107 48.2988 18.0528C48.6801 17.8948 49.0888 17.8135 49.5015 17.8135C49.9142 17.8135 50.3228 17.8948 50.7041 18.0528C51.0854 18.2107 51.4319 18.4422 51.7237 18.734C52.0155 19.0258 52.247 19.3723 52.4049 19.7536C52.5629 20.1349 52.6442 20.5435 52.6442 20.9562C52.6442 22.6946 51.2383 24.1004 49.5029 24.1004Z" fill="white"/>
<path d="M35.4825 43.6974C40.3198 43.6974 44.2413 39.776 44.2413 34.9387C44.2413 30.1014 40.3198 26.1799 35.4825 26.1799C30.6452 26.1799 26.7238 30.1014 26.7238 34.9387C26.7238 39.776 30.6452 43.6974 35.4825 43.6974Z" fill="white"/>
</svg>
