<svg width="30" height="30" viewBox="0 0 30 30" fill="none" xmlns="http://www.w3.org/2000/svg">
<g clip-path="url(#clip0_1621_12186)">
<path d="M15.0002 10.1185C12.3122 10.1185 10.1186 12.3121 10.1186 15.0001C10.1186 17.6881 12.3122 19.8817 15.0002 19.8817C17.6882 19.8817 19.8818 17.6881 19.8818 15.0001C19.8818 12.3121 17.6882 10.1185 15.0002 10.1185ZM29.6413 15.0001C29.6413 12.9786 29.6596 10.9755 29.5461 8.95763C29.4325 6.61388 28.8979 4.5338 27.184 2.81994C25.4665 1.10241 23.3901 0.571402 21.0463 0.457876C19.0248 0.344351 17.0217 0.362662 15.0038 0.362662C12.9824 0.362662 10.9792 0.344351 8.96136 0.457876C6.61761 0.571402 4.53753 1.10607 2.82366 2.81994C1.10613 4.53747 0.575125 6.61388 0.461599 8.95763C0.348074 10.9791 0.366385 12.9823 0.366385 15.0001C0.366385 17.0179 0.348074 19.0248 0.461599 21.0426C0.575125 23.3863 1.10979 25.4664 2.82366 27.1803C4.54119 28.8978 6.61761 29.4288 8.96136 29.5423C10.9828 29.6559 12.986 29.6376 15.0038 29.6376C17.0253 29.6376 19.0285 29.6559 21.0463 29.5423C23.3901 29.4288 25.4701 28.8942 27.184 27.1803C28.9015 25.4628 29.4325 23.3863 29.5461 21.0426C29.6633 19.0248 29.6413 17.0216 29.6413 15.0001ZM15.0002 22.5111C10.8437 22.5111 7.48919 19.1566 7.48919 15.0001C7.48919 10.8436 10.8437 7.48913 15.0002 7.48913C19.1567 7.48913 22.5112 10.8436 22.5112 15.0001C22.5112 19.1566 19.1567 22.5111 15.0002 22.5111ZM22.8188 8.93566C21.8483 8.93566 21.0646 8.15197 21.0646 7.18151C21.0646 6.21105 21.8483 5.42736 22.8188 5.42736C23.7892 5.42736 24.5729 6.21105 24.5729 7.18151C24.5732 7.41195 24.528 7.64018 24.44 7.85314C24.3519 8.06609 24.2227 8.25958 24.0598 8.42253C23.8968 8.58547 23.7034 8.71467 23.4904 8.80272C23.2775 8.89077 23.0492 8.93595 22.8188 8.93566Z" fill="#7C7C7C"/>
</g>
<defs>
<clipPath id="clip0_1621_12186">
<rect width="30" height="30" fill="white"/>
</clipPath>
</defs>
</svg>
