<svg width="71" height="70" viewBox="0 0 71 70" fill="none" xmlns="http://www.w3.org/2000/svg">
<path d="M69.7981 35.4064C69.7952 38.6491 68.8315 41.8183 67.0285 44.5137C65.2256 47.209 62.6644 49.3096 59.6683 50.5502C56.6722 51.7907 53.3757 52.1156 50.1951 51.4837C47.0145 50.8519 44.0925 49.2917 41.7981 47.0001L41.6614 46.8634L25.2825 28.379C23.8983 27.0214 22.1441 26.1026 20.2399 25.7381C18.3356 25.3737 16.3661 25.5796 14.5785 26.3302C12.7908 27.0808 11.2646 28.3426 10.1913 29.9572C9.11808 31.5719 8.54553 33.4675 8.54553 35.4064C8.54553 37.3452 9.11808 39.2409 10.1913 40.8555C11.2646 42.4702 12.7908 43.732 14.5785 44.4826C16.3661 45.2331 18.3356 45.4391 20.2399 45.0746C22.1441 44.7101 23.8983 43.7914 25.2825 42.4337L26.1301 41.4767C26.7066 40.824 27.5188 40.4271 28.388 40.3732C29.2572 40.3194 30.1122 40.613 30.7649 41.1896C31.4176 41.7661 31.8145 42.5783 31.8683 43.4475C31.9222 44.3167 31.6285 45.1717 31.052 45.8243L30.1223 46.8634L29.9856 47.0001C28.4642 48.5247 26.6571 49.7342 24.6677 50.5595C22.6783 51.3847 20.5456 51.8095 18.3918 51.8095C16.238 51.8095 14.1054 51.3847 12.116 50.5595C10.1266 49.7342 8.31944 48.5247 6.79808 47.0001C4.50653 44.7057 2.94631 41.7837 2.31446 38.6031C1.68261 35.4225 2.00749 32.126 3.24805 29.1299C4.48861 26.1339 6.58921 23.5726 9.28456 21.7697C11.9799 19.9667 15.1491 19.003 18.3918 19.0001C20.5472 18.9915 22.6826 19.4126 24.6733 20.239C26.664 21.0653 28.4699 22.2802 29.9856 23.8126L30.1223 23.9493L46.5012 42.4337C47.8853 43.7914 49.6395 44.7101 51.5438 45.0746C53.4481 45.4391 55.4176 45.2331 57.2052 44.4826C58.9929 43.732 60.519 42.4702 61.5923 40.8555C62.6656 39.2409 63.2381 37.3452 63.2381 35.4064C63.2381 33.4675 62.6656 31.5719 61.5923 29.9572C60.519 28.3426 58.9929 27.0808 57.2052 26.3302C55.4176 25.5796 53.4481 25.3737 51.5438 25.7381C49.6395 26.1026 47.8853 27.0214 46.5012 28.379L45.6535 29.3361C45.077 29.9887 44.2648 30.3857 43.3956 30.4395C42.5264 30.4934 41.6715 30.1997 41.0188 29.6232C40.3661 29.0466 39.9692 28.2344 39.9153 27.3653C39.8615 26.4961 40.1551 25.6411 40.7317 24.9884L41.6614 23.9493L41.7981 23.8126C44.0925 21.5211 47.0145 19.9609 50.1951 19.329C53.3757 18.6972 56.6722 19.022 59.6683 20.2626C62.6644 21.5032 65.2256 23.6038 67.0285 26.2991C68.8315 28.9944 69.7952 32.1636 69.7981 35.4064Z" fill="white"/>
</svg>
