<svg width="260" height="6" viewBox="0 0 260 6" fill="none" xmlns="http://www.w3.org/2000/svg">
<path d="M0.333333 3C0.333333 4.47276 1.52724 5.66667 3 5.66667C4.47276 5.66667 5.66667 4.47276 5.66667 3C5.66667 1.52724 4.47276 0.333333 3 0.333333C1.52724 0.333333 0.333333 1.52724 0.333333 3ZM254.333 3C254.333 4.47276 255.527 5.66667 257 5.66667C258.473 5.66667 259.667 4.47276 259.667 3C259.667 1.52724 258.473 0.333333 257 0.333333C255.527 0.333333 254.333 1.52724 254.333 3ZM3 3.5H257V2.5H3V3.5Z" fill="white"/>
</svg>
