<svg width="71" height="70" viewBox="0 0 71 70" fill="none" xmlns="http://www.w3.org/2000/svg">
<path d="M9.25001 55.4166H61.75C62.2815 55.4149 62.8026 55.2683 63.257 54.9926C63.7114 54.7168 64.082 54.3224 64.3289 53.8517C64.5758 53.381 64.6897 52.8518 64.6582 52.3212C64.6268 51.7906 64.4512 51.2786 64.1504 50.8404L37.9004 12.9237C36.8125 11.3516 34.1933 11.3516 33.1025 12.9237L6.85251 50.8404C6.54866 51.2777 6.37048 51.7899 6.33732 52.3214C6.30416 52.8529 6.41729 53.3833 6.66442 53.855C6.91155 54.3268 7.28323 54.7217 7.73907 54.997C8.19491 55.2723 8.71748 55.4174 9.25001 55.4166Z" fill="white"/>
</svg>
