<svg width="24" height="24" viewBox="0 0 24 24" fill="none" xmlns="http://www.w3.org/2000/svg">
<path d="M23.1429 4.2857H18.8571V2.7857C18.8571 2.66784 18.7607 2.57141 18.6429 2.57141H17.1429C17.025 2.57141 16.9286 2.66784 16.9286 2.7857V4.2857H12.9643V2.7857C12.9643 2.66784 12.8679 2.57141 12.75 2.57141H11.25C11.1321 2.57141 11.0357 2.66784 11.0357 2.7857V4.2857H7.07143V2.7857C7.07143 2.66784 6.975 2.57141 6.85714 2.57141H5.35714C5.23929 2.57141 5.14286 2.66784 5.14286 2.7857V4.2857H0.857143C0.383036 4.2857 0 4.66873 0 5.14284V20.5714C0 21.0455 0.383036 21.4286 0.857143 21.4286H23.1429C23.617 21.4286 24 21.0455 24 20.5714V5.14284C24 4.66873 23.617 4.2857 23.1429 4.2857ZM9.64286 16.7143C9.64286 16.8321 9.54643 16.9286 9.42857 16.9286H4.5C4.38214 16.9286 4.28571 16.8321 4.28571 16.7143V15.4286C4.28571 15.3107 4.38214 15.2143 4.5 15.2143H9.42857C9.54643 15.2143 9.64286 15.3107 9.64286 15.4286V16.7143ZM9.64286 13.0714C9.64286 13.1893 9.54643 13.2857 9.42857 13.2857H4.5C4.38214 13.2857 4.28571 13.1893 4.28571 13.0714V11.7857C4.28571 11.6678 4.38214 11.5714 4.5 11.5714H9.42857C9.54643 11.5714 9.64286 11.6678 9.64286 11.7857V13.0714ZM19.6741 10.6259L15.2545 16.7518C15.215 16.8065 15.1631 16.8511 15.103 16.8819C15.0429 16.9126 14.9764 16.9287 14.9089 16.9287C14.8414 16.9287 14.7749 16.9126 14.7148 16.8819C14.6548 16.8511 14.6028 16.8065 14.5634 16.7518L11.5045 12.5143C11.4027 12.3723 11.5045 12.1741 11.6786 12.1741H13.1491C13.2857 12.1741 13.4143 12.2411 13.4946 12.3509L14.9089 14.3089L17.6866 10.4598C17.767 10.3473 17.8955 10.283 18.0321 10.283H19.5C19.6741 10.2857 19.7759 10.4839 19.6741 10.6259Z" fill="white"/>
</svg>
