<svg width="70" height="70" viewBox="0 0 70 70" fill="none" xmlns="http://www.w3.org/2000/svg">
<path d="M41.2458 12.7253C38.405 10.3045 34.0358 12.3257 34.0358 16.0561V27.6878L16.4541 12.7253C13.6133 10.3074 9.24414 12.3286 9.24414 16.059V53.9553C9.24414 56.5161 11.3062 58.272 13.5171 58.3361H13.7708C14.6983 58.307 15.6375 57.9803 16.4541 57.2861L34.0358 42.3236V53.9524C34.0358 57.6828 38.405 59.7011 41.2458 57.2832L62.8583 38.8907C63.4211 38.4115 63.8732 37.8158 64.1832 37.1448C64.4932 36.4738 64.6537 35.7434 64.6537 35.0043C64.6537 34.2651 64.4932 33.5347 64.1832 32.8637C63.8732 32.1927 63.4211 31.597 62.8583 31.1178L41.2458 12.7253Z" fill="white"/>
</svg>
