<svg width="45" height="22" viewBox="0 0 45 22" fill="none" xmlns="http://www.w3.org/2000/svg">
<path d="M2.18384 19.1723L-0.000226308 16.9494L14.8226 1.86273C15.2471 1.43069 15.751 1.08798 16.3056 0.854158C16.8603 0.620337 17.4547 0.499992 18.055 0.499992C18.6553 0.499992 19.2498 0.620336 19.8044 0.854157C20.359 1.08798 20.863 1.43069 21.2874 1.86273L23.4715 4.08567L8.64868 19.1723C7.79139 20.0449 6.62865 20.5351 5.41626 20.5351C4.20387 20.5351 3.04113 20.0449 2.18384 19.1723Z" fill="#F15A25"/>
<path d="M19.0281 19.1732L16.844 16.9503L31.6668 1.86365C32.0913 1.43161 32.5953 1.08889 33.1499 0.855074C33.7045 0.621254 34.2989 0.500908 34.8993 0.500908C35.4996 0.500908 36.094 0.621252 36.6486 0.855073C37.2033 1.08889 37.7072 1.43161 38.1317 1.86365L40.3157 4.08659L25.4929 19.1732C24.6356 20.0458 23.4729 20.536 22.2605 20.536C21.0481 20.536 19.8854 20.0458 19.0281 19.1732Z" fill="#F15A25"/>
<path d="M35.5773 16.9894C35.5773 19.5014 37.5781 21.5377 40.0461 21.5377C42.5141 21.5377 44.5149 19.5014 44.5149 16.9894C44.5149 14.4774 42.5141 12.4411 40.0461 12.4411C37.5781 12.4411 35.5773 14.4774 35.5773 16.9894Z" fill="#F15A25"/>
</svg>
